<?xml version="1.0" encoding="UTF-8"?>
<svg xmlns="http://www.w3.org/2000/svg" xmlns:xlink="http://www.w3.org/1999/xlink" width="16px" height="16px" viewBox="0 0 16 15" version="1.1">
<g id="surface1">
<path style=" stroke:none;fill-rule:nonzero;fill:rgb(0%,0%,0%);fill-opacity:1;" d="M 2.671875 5.671875 C 2.449219 5.699219 2.261719 5.773438 2.082031 5.902344 C 2 5.960938 1.886719 6.066406 1.824219 6.148438 C 1.769531 6.222656 1.6875 6.378906 1.660156 6.460938 C 1.613281 6.59375 1.601562 6.664062 1.601562 6.8125 C 1.601562 6.96875 1.617188 7.058594 1.664062 7.1875 C 1.804688 7.582031 2.152344 7.867188 2.597656 7.953125 C 2.664062 7.96875 2.691406 7.96875 2.832031 7.96875 C 2.972656 7.96875 3.003906 7.964844 3.066406 7.953125 C 3.300781 7.90625 3.511719 7.804688 3.671875 7.660156 L 3.746094 7.59375 L 3.808594 7.652344 C 3.976562 7.804688 4.179688 7.90625 4.425781 7.953125 C 4.488281 7.964844 4.515625 7.96875 4.65625 7.96875 C 4.804688 7.96875 4.820312 7.96875 4.898438 7.953125 C 5.1875 7.894531 5.417969 7.761719 5.605469 7.554688 C 5.671875 7.476562 5.714844 7.417969 5.761719 7.324219 C 5.929688 7.003906 5.929688 6.636719 5.765625 6.316406 C 5.589844 5.976562 5.261719 5.746094 4.863281 5.679688 C 4.828125 5.671875 4.757812 5.667969 4.703125 5.664062 C 4.269531 5.648438 3.867188 5.84375 3.625 6.191406 C 3.554688 6.292969 3.488281 6.441406 3.457031 6.5625 C 3.4375 6.632812 3.433594 6.695312 3.425781 6.8125 C 3.417969 6.9375 3.40625 6.988281 3.367188 7.0625 C 3.257812 7.269531 3.03125 7.390625 2.792969 7.375 C 2.707031 7.371094 2.65625 7.359375 2.570312 7.320312 C 2.425781 7.257812 2.3125 7.136719 2.261719 6.988281 C 2.242188 6.929688 2.238281 6.925781 2.238281 6.816406 C 2.238281 6.707031 2.238281 6.703125 2.261719 6.644531 C 2.339844 6.429688 2.539062 6.28125 2.78125 6.257812 L 2.828125 6.253906 L 2.828125 5.664062 L 2.78125 5.664062 C 2.753906 5.664062 2.707031 5.667969 2.671875 5.671875 Z M 4.734375 6.261719 C 4.925781 6.285156 5.101562 6.402344 5.1875 6.5625 C 5.230469 6.640625 5.246094 6.707031 5.25 6.804688 C 5.253906 6.882812 5.253906 6.898438 5.238281 6.953125 C 5.171875 7.191406 4.957031 7.359375 4.695312 7.375 C 4.515625 7.386719 4.351562 7.324219 4.222656 7.199219 C 4.109375 7.085938 4.058594 6.953125 4.066406 6.785156 C 4.066406 6.714844 4.070312 6.699219 4.089844 6.640625 C 4.121094 6.558594 4.160156 6.5 4.222656 6.4375 C 4.355469 6.300781 4.539062 6.238281 4.734375 6.261719 Z M 4.734375 6.261719 "/>
<path style=" stroke:none;fill-rule:nonzero;fill:rgb(0%,0%,0%);fill-opacity:1;" d="M 6.0625 6.8125 L 6.0625 7.914062 L 6.699219 7.914062 L 6.703125 7.285156 L 6.703125 6.660156 L 7 7.082031 C 7.195312 7.363281 7.296875 7.507812 7.304688 7.503906 C 7.308594 7.503906 7.449219 7.3125 7.609375 7.078125 L 7.90625 6.652344 L 7.910156 7.28125 L 7.910156 7.914062 L 8.234375 7.914062 L 8.558594 7.910156 L 8.558594 5.710938 L 7.867188 5.710938 L 7.59375 6.128906 C 7.445312 6.355469 7.320312 6.546875 7.3125 6.550781 C 7.308594 6.554688 7.214844 6.414062 7.03125 6.132812 L 6.75 5.707031 L 6.0625 5.707031 Z M 6.0625 6.8125 "/>
<path style=" stroke:none;fill-rule:nonzero;fill:rgb(0%,0%,0%);fill-opacity:1;" d="M 8.789062 6.808594 L 8.789062 7.910156 L 9.742188 7.914062 L 10.695312 7.914062 L 10.695312 7.390625 L 9.433594 7.390625 L 9.433594 7.21875 L 9.4375 7.042969 L 10 7.042969 L 10.5625 7.039062 L 10.5625 6.5625 L 10 6.5625 L 9.4375 6.558594 L 9.4375 6.226562 L 10.058594 6.226562 L 10.683594 6.222656 L 10.683594 5.707031 L 8.785156 5.707031 Z M 8.789062 6.808594 "/>
<path style=" stroke:none;fill-rule:nonzero;fill:rgb(0%,0%,0%);fill-opacity:1;" d="M 10.8125 6.355469 C 10.8125 6.730469 10.816406 7.035156 10.820312 7.078125 C 10.84375 7.339844 10.929688 7.539062 11.085938 7.6875 C 11.273438 7.863281 11.546875 7.953125 11.898438 7.953125 C 12.25 7.953125 12.519531 7.871094 12.707031 7.703125 C 12.867188 7.558594 12.957031 7.371094 12.988281 7.117188 C 13 7.058594 13 6.90625 13 6.375 L 13 5.707031 L 12.339844 5.707031 L 12.339844 6.351562 C 12.339844 6.761719 12.339844 7.011719 12.335938 7.046875 C 12.320312 7.152344 12.28125 7.234375 12.210938 7.296875 C 12.132812 7.371094 12.042969 7.402344 11.90625 7.398438 C 11.765625 7.398438 11.671875 7.363281 11.597656 7.289062 C 11.550781 7.242188 11.511719 7.164062 11.492188 7.089844 C 11.476562 7.03125 11.476562 7.019531 11.472656 6.371094 L 11.46875 5.707031 L 10.8125 5.707031 Z M 10.8125 6.355469 "/>
<path style=" stroke:none;fill-rule:nonzero;fill:rgb(0%,0%,0%);fill-opacity:1;" d="M 13.203125 6.8125 L 13.203125 7.914062 L 13.527344 7.914062 L 13.851562 7.910156 L 13.855469 7.597656 L 13.855469 7.28125 L 14.050781 7.28125 C 14.269531 7.28125 14.371094 7.277344 14.484375 7.253906 C 14.691406 7.214844 14.855469 7.132812 14.976562 7.011719 C 15.042969 6.949219 15.066406 6.917969 15.105469 6.835938 C 15.21875 6.613281 15.210938 6.304688 15.085938 6.097656 C 14.984375 5.929688 14.808594 5.808594 14.578125 5.75 C 14.425781 5.710938 14.4375 5.710938 13.792969 5.710938 L 13.203125 5.707031 Z M 14.300781 6.234375 C 14.4375 6.273438 14.511719 6.34375 14.53125 6.464844 C 14.550781 6.597656 14.488281 6.710938 14.367188 6.765625 C 14.296875 6.796875 14.222656 6.804688 14.023438 6.804688 L 13.855469 6.804688 L 13.855469 6.21875 L 14.050781 6.21875 C 14.222656 6.222656 14.253906 6.222656 14.300781 6.234375 Z M 14.300781 6.234375 "/>
<path style=" stroke:none;fill-rule:nonzero;fill:rgb(0%,0%,0%);fill-opacity:1;" d="M 1.601562 8.574219 C 1.601562 8.574219 1.601562 8.710938 1.601562 8.871094 L 1.605469 9.164062 L 15.183594 9.164062 L 15.183594 8.570312 L 8.394531 8.570312 C 4.660156 8.570312 1.605469 8.574219 1.601562 8.574219 Z M 1.601562 8.574219 "/>
</g>
</svg>
