<?xml version="1.0" encoding="UTF-8"?>
<svg xmlns="http://www.w3.org/2000/svg" xmlns:xlink="http://www.w3.org/1999/xlink" width="16px" height="16px" viewBox="0 0 16 16" version="1.1">
<g id="surface1">
<path style=" stroke:none;fill-rule:nonzero;fill:rgb(0%,46.666667%,80.000001%);fill-opacity:1;" d="M 3.839844 0 L 12.160156 0 C 14.28125 0 16 1.71875 16 3.839844 L 16 12.160156 C 16 14.28125 14.28125 16 12.160156 16 L 3.839844 16 C 1.71875 16 0 14.28125 0 12.160156 L 0 3.839844 C 0 1.71875 1.71875 0 3.839844 0 Z M 3.839844 0 "/>
<path style="fill-rule:nonzero;fill:rgb(0%,0%,0%);fill-opacity:1;stroke-width:0.00024;stroke-linecap:butt;stroke-linejoin:miter;stroke:rgb(0%,0%,0%);stroke-opacity:1;stroke-miterlimit:4;" d="M 16.246172 16.246172 L 16.246172 6.25336 L 6.25336 6.25336 L 6.25336 5.626875 C 6.25336 4.590469 7.088672 3.747422 8.125078 3.747422 L 9.996797 3.747422 L 9.996797 -0.00374988 L 8.125078 -0.00374988 C 5.023594 0.0039845 2.502188 2.517656 2.502188 5.626875 L 2.502188 6.25336 L -0.00374988 6.25336 L -0.00374988 9.996797 L 2.502188 9.996797 L 2.502188 16.246172 L -0.00374988 16.246172 L -0.00374988 19.997344 L 8.751563 19.997344 L 8.751563 16.246172 L 6.25336 16.246172 L 6.25336 9.996797 L 12.533672 9.996797 L 12.533672 16.246172 L 9.996797 16.246172 L 9.996797 19.997344 L 18.75211 19.997344 L 18.75211 16.246172 Z M 16.246172 16.246172 " transform="matrix(0.505051,0,0,0.505051,1.939394,1.939394)"/>
<path style="fill-rule:nonzero;fill:rgb(0%,0%,0%);fill-opacity:1;stroke-width:0.00024;stroke-linecap:butt;stroke-linejoin:miter;stroke:rgb(0%,0%,0%);stroke-opacity:1;stroke-miterlimit:4;" d="M 16.246172 1.875703 C 16.246172 0.839297 15.41086 -0.00374988 14.374453 -0.00374988 C 13.338047 -0.00374988 12.502735 0.839297 12.502735 1.875703 C 12.502735 2.91211 13.338047 3.747422 14.374453 3.747422 C 15.41086 3.747422 16.246172 2.91211 16.246172 1.875703 Z M 16.246172 1.875703 " transform="matrix(0.505051,0,0,0.505051,1.939394,1.939394)"/>
</g>
</svg>
