<?xml version="1.0" encoding="UTF-8"?>
<svg xmlns="http://www.w3.org/2000/svg" xmlns:xlink="http://www.w3.org/1999/xlink" width="16px" height="16px" viewBox="0 0 16 16" version="1.1">
<g id="surface1">
<path style=" stroke:none;fill-rule:nonzero;fill:rgb(0%,0%,0%);fill-opacity:1;" d="M 0 0.0195312 C 0 0.0351562 2.675781 0.0390625 7.996094 0.0390625 C 13.316406 0.0390625 15.992188 0.0351562 15.992188 0.0195312 C 15.992188 0.0078125 13.316406 0 7.996094 0 C 2.675781 0 0 0.0078125 0 0.0195312 Z M 0 0.0195312 "/>
<path style=" stroke:none;fill-rule:nonzero;fill:rgb(0%,0%,0%);fill-opacity:1;" d="M 8.054688 0.582031 C 7.148438 0.632812 6.273438 0.882812 5.53125 1.300781 C 3.679688 2.339844 2.78125 4.730469 2.847656 8.410156 C 2.890625 10.765625 3.121094 12.460938 3.558594 13.675781 C 3.996094 14.890625 4.605469 15.492188 5.398438 15.488281 C 5.882812 15.488281 6.246094 15.289062 6.59375 14.847656 C 6.898438 14.464844 7.140625 13.957031 7.445312 13.074219 C 7.816406 12.011719 7.902344 11.777344 8.011719 11.515625 C 8.480469 10.429688 9.078125 9.898438 10.25 9.511719 C 10.757812 9.34375 11.03125 9.214844 11.335938 9.007812 C 12.199219 8.429688 12.8125 7.441406 13.046875 6.246094 C 13.175781 5.582031 13.199219 4.929688 13.105469 4.324219 C 12.875 2.851562 11.953125 1.574219 10.730469 1.03125 C 10.324219 0.851562 9.761719 0.699219 9.277344 0.632812 C 9.078125 0.601562 8.941406 0.59375 8.480469 0.570312 C 8.402344 0.570312 8.210938 0.574219 8.054688 0.582031 Z M 8.054688 0.582031 "/>
</g>
</svg>
